<svg xmlns="http://www.w3.org/2000/svg" class="icon" viewBox="0 0 1024 1024">
  <path fill="#c2c7e5" d="M784 201h38v707h-38z"/>
  <path fill="#f5bb1b" d="M822 188v-19h-38v19H684v35h237v-35zm-138 64h237v35H684z"/>
  <path fill="#c2c7e5" d="M218 201h39v707h-39z"/>
  <path fill="#f5bb1b" d="m135 139 219 91-14 33-219-92z"/>
  <path fill="#35464e" d="M73 347h318v36H73z"/>
  <path fill="#e72845" d="M88 383h287v136H88z"/>
  <path fill="#35464e" d="M73 519h318v35H73z"/>
  <path fill="#c7161e" d="M88 383h287v39H88z"/>
  <path fill="#35464e" d="M136 383h42v92h-42zm151 0h42v92h-42zm357-36h318v36H644z"/>
  <path fill="#e72845" d="M660 383h286v136H660z"/>
  <path fill="#35464e" d="M644 519h318v35H644z"/>
  <path fill="#c7161e" d="M660 383h286v39H660z"/>
  <path fill="#35464e" d="M707 383h42v92h-42zm151 0h42v92h-42z"/>
  <path fill="#c2c7e5" d="m727 880-33 28-52-63 33-28zm-360-63 33 28-52 63-34-28z"/>
  <path fill="#526c78" d="M297 671a225 225 0 1 0 450 0 225 225 0 1 0-450 0"/>
  <path fill="#263137" d="M522 914a243 243 0 0 1-243-243 243 243 0 0 1 243-242 243 243 0 0 1 242 242 243 243 0 0 1-242 243m0-450a207 207 0 0 0-208 207 207 207 0 0 0 415 0 207 207 0 0 0-207-207"/>
</svg>