<svg xmlns="http://www.w3.org/2000/svg" class="icon" viewBox="0 0 1024 1024">
  <path fill="#d94437" d="m161 522-17 11-36 34m46-47-26 22-27 23"/>
  <path fill="#d94437" d="M469 814c1-26-11-88 33-132 45-46 137-59 143-64q22-24 28-53c-46 15-111-34-149-115-24-50-10-123-2-160-27-7-54-5-80 18-22 18-41 78-87 124-64 65-153 66-190 87q-22 9-48 35l-24 29a171 171 0 0 0 16 226l69 69a172 172 0 0 0 220 17q15-9 34-26c24-23 40-46 37-55"/>
  <path fill="#fbe9eb" d="M454 694c4-7 14-23 38-47 22-22 80-37 82-39 8-7 6-18 8-27-21 7-75-43-93-81-12-24-17-38-13-56-13-3-13 2-25 12-11 9-19 37-41 59-31 31-80 38-89 44l-26 16a83 83 0 0 0-1 117l32 33a81 81 0 0 0 115-1z"/>
  <path fill="#5b4037" d="m456 635-49-48 433-426 37 38z"/>
  <path fill="#5a4035" d="m847 257-79-44L893 97l73 39z"/>
  <path fill="#4b5359" d="m279 647 101 101-28 29-102-101zm54-54 101 100-31 31-101-100z"/>
</svg>