<svg xmlns="http://www.w3.org/2000/svg" xml:space="preserve" viewBox="0 0 512 512">
  <circle cx="213.5" cy="55" r="18.4" fill="#f7b239"/>
  <g fill="#f2f2f2">
    <circle cx="298.5" cy="55" r="18.4"/>
    <path d="M16 108h472v186H16zm0 218h472v186H16z"/>
  </g>
  <path fill="#f95428" d="M0 0v512h40V344h432v168h40V0zm299 37a18 18 0 1 1 0 36 18 18 0 0 1 0-36m-86 0a18 18 0 1 1 0 36 18 18 0 0 1 0-36m189 248H40V117h432v168z"/>
  <path fill="#4d4d4d" d="M349 117v90h-40v-90zm-73 0v90h-40v-90h20zm-147 0v90H90v-90h20z"/>
  <path fill="#f7b239" d="M40 83q7 0 10-7 2-7-3-12c-8-6-19 1-17 10q2 8 10 9"/>
  <path fill="#3a88d6" d="M70 81q6 3 12-1t4-12c-4-8-16-9-20 0q-3 7 4 13-1-1 0 0"/>
  <path fill="#f7b239" d="m101 76 2 4c7 6 19 1 19-8-1-9-12-14-19-7q-4 5-2 11"/>
  <path fill="#3a88d6" d="M137 76q3 7 11 7 7-1 9-9 2-7-6-11-7-4-12 2-5 5-2 11-1 0 0 0M30 45c3 7 14 9 18 2q4-6 1-13-7-6-14-2t-5 13"/>
  <path fill="#f7b239" d="M66 45q3 7 10 6 7 0 10-7 2-7-4-12-5-4-12 0-6 5-4 13-1 0 0 0"/>
  <path fill="#3a88d6" d="M101 45q4 7 10 6 8 0 10-7 2-6-3-11-6-5-13-1-6 5-4 13"/>
  <path fill="#f7b239" d="M137 45q3 7 11 6 7-1 9-8t-6-12q-7-3-12 2t-2 12q-1 0 0 0"/>
  <path fill="#3a88d6" d="M356 76c3 8 14 9 19 1q4-7-2-12-5-6-12-2-8 4-5 13-1 0 0 0"/>
  <path fill="#f7b239" d="M391 76q3 7 11 7 7-2 9-8 2-7-4-12-7-3-13 1-5 5-3 12"/>
  <path fill="#3a88d6" d="M427 76q3 7 10 7 6-2 10-8 1-7-4-11-7-5-13 0t-3 12"/>
  <path fill="#f7b239" d="M466 81c7 5 17-1 16-10 0-9-11-13-18-6-4 4-4 12 2 16q0-1 0 0M356 45q3 7 10 6 8 0 10-8c2-9-9-16-16-11q-7 5-4 13-1 0 0 0"/>
  <path fill="#3a88d6" d="M395 50c8 5 19-3 16-12q-2-8-10-8-7 1-10 7-3 8 4 13 1-1 0 0"/>
  <path fill="#f7b239" d="M427 45q3 7 10 6 6-1 10-7 1-7-4-12-6-3-13 0-6 6-3 13"/>
  <path fill="#3a88d6" d="M466 50c7 4 16-1 17-9 0-9-12-14-19-8q-6 9 2 17 0-1 0 0"/>
  <path fill="#4d4d4d" d="M105 207h10v78h-10zm292-90h10v168h-10zm-73 90h10v78h-10zm-73 0h10v78h-10zm-73-90h10v168h-10zm244 227h-39v90h14v78h10v-78h15zm-186 0v90h15v78h10v-78h15v-90h-20zm-73 90h15v78h10v-78h15v-90h-40zm-58-90h10v168h-10zm219 0h10v168h-10z"/>
</svg>