<svg xmlns="http://www.w3.org/2000/svg" class="icon" viewBox="0 0 1024 1024">
  <path fill="#5b4037" d="m867 139 79 87-15 13-79-87zm-20 17 78 87-15 14-78-87z"/>
  <path fill="#b5612c" d="m922 115 50 51-148 132-39-41z"/>
  <path fill="#e88f22" d="M556 782a95 95 0 0 1 132-137l92-95c37-33 34-96-5-139L663 288c-39-44-101-52-138-18l-103 82a95 95 0 0 1-147 122l-2-4-143 114 3 2c42 47 37 119-11 163a121 121 0 0 1-33 21l157 172c39 43 101 52 137 18z"/>
  <path fill="#5b4037" d="m133 586-3-2-52 40c-36 34-34 96 5 139l6 7q18-8 33-21c48-44 53-116 11-163m406-23-48-53 351-308 38 42zm-58 75 32 17-97 173-26-14zm-75-81-14-34-181 80 11 27zM265 787l-24-26-88 85 19 21z"/>
</svg>