<svg xmlns="http://www.w3.org/2000/svg" version="1.0" viewBox="0 0 1040 264">
  <!-- <path fill="#06B6D4" stroke="#819739" stroke-width="2" d="M3746.6 4927.4c26.2 6.8 64.7 8.1 92.3 0 26.7-7.8 51-25 71.3-46.1 22.2-22.8 54-17.8 91.7-53.2 69.9-65.8 260.8-204.8 391.5-275.4 117-63.2 211.4-108.5 318.3-170.7 108.7-63.3 205.6-166.1 310.4-226.6 98.1-56.5 263.2-104.2 298-130 12.3-9.3 7-15.5 12.5-21s13-4.1 21-12.6c13.9-14.9 41.7-52 50.4-84 9.3-34.4 9.3-84.7 0-117.4-8.2-28.8-16.4-49.6-46.2-71.4-46.9-34.2-152.9-69.6-188.2-109.4-23.3-26.3-55.5-40.4-67.7-71-14.1-35.2-72.9-53.2-108.2-83.5a424 424 0 0 0-136.8-79.2c-65.6-24.6-105.1-74.3-188.6-112-108.3-48.9-149.7-105.1-189.5-145-13.2-13.2-186.2-103.3-200-115.4a1772 1772 0 0 0-259.2-182c-24.4-13.8-103.8-48.7-122-59.1-29-16.7-112-39.6-151-33.6-30.7 4.8-53.6 27.6-71.3 46.2-16.2 17-25 14.3-33.6 58.7-26.4 135.5 15.6 898.3-8.4 1099.3-11.7 98.2 45.5 274.2 21.6 376.8-26.8 115-39.6 196-34.9 282.5 1.6 28.4-11.9 36 2.6 51.7 10.3 11-21.5 132.7-16.4 147.4 9.1 26 27.2-7.8 35.5 31.2 6.6 30.8 27.6 53.5 46.2 71.3a129 129 0 0 0 58.7 33.5Z" transform="matrix(0.09989, 0, 0, -0.100364, 0.011021, 770.759094) matrix(1.008021, 0, 0, 1, -1764.838989, 2559.847412)"/> -->
  <path fill="#fd3c84" d="M196.3 11.3a22 22 0 0 0-10.9 9.7l-2.7 4.6v206l3 4.8c6 9.6 19 13.4 28.8 8.5 2.2-1.2 28.2-17.3 57.6-35.9l72.7-45.7c29.6-18.5 29.8-18.7 32.7-24.3a23 23 0 0 0-7.3-29.4L267.8 45a2106 2106 0 0 0-52.3-32.3c-6-3-14.4-3.7-19.2-1.5m24.5 23.2 50.5 31.7L320 96.8l25.7 16.2c19.3 12 20.4 13.2 17.6 18.5-.5 1-23 15.7-50 32.7L236 213c-30.2 19-33 20.1-36.1 15.6-1.4-2-1.6-13.1-1.6-100.4 0-96.8 0-98.1 2-100.1 3.4-3.4 6.6-2.4 20.5 6.4m419.5 14.2v34.6h16.1V43.6l3.9 6c2 3.4 6.7 10.7 10.2 16.3l6.4 10.4h8.3l8.6-14.7c13-22.4 11.9-22.5 12 1.3v20.4h7c8.6 0 8.6 0 8.5-2.5l-.3-34.5-.1-32.3h-14.6l-12.1 20.3c-6.6 11-12.5 20.2-13 20.2s-6.7-9.2-13.7-20.2L655 14h-14.6zm96.7 0v34.6h17V14h-17zm32.7 0v34.7l22.7-.3c22.4-.3 22.7-.3 28.7-3.1a35 35 0 0 0 16.4-15.3 43 43 0 0 0 1.8-27.4 34 34 0 0 0-23-21.5c-5-1.5-9.3-1.8-26.2-1.8h-20.4zM812.3 30a20 20 0 0 1 11.3 19c0 6.4-1.3 9.8-5.4 14.1-4.9 5.1-8.2 6.1-20.8 6.1h-11V28.1h11c9 0 11.9.4 15 1.9M852 48.7l.3 34.6h16.6V14h-17.2z"/>
  <path fill="#ffa48d" d="M918.2 102.9c-9.5 2.7-18 9.6-22.3 18.3-2 4-2.3 6.3-2.3 14.3 0 8.4.3 10.1 2.7 14.5 3.2 6 9.8 12.6 15.6 15.5a50 50 0 0 0 11.2 3.2c12.4 2 26-2.3 33.4-10.8a33.6 33.6 0 0 0 0-45 39 39 0 0 0-38.3-10M941 119c14.2 11.5 8.1 34.6-9.6 36.3a20.4 20.4 0 0 1-20.3-29.4c3.5-7.7 9-10.6 19-10.2 6.3.2 7.6.6 10.9 3.3m-277.2-15.4c-1.4 1.8-27.4 59.7-28.1 62.6-.6 2.4-.5 2.4 7 2.4h7.8l3.1-7 3.1-7h30.6l3.3 7 3 7h8.1c4.5 0 8.1-.3 8.1-.8s-6.6-15.3-14.7-33.1l-14.8-32.3h-7.8q-7.7 0-8.7 1.2m13.7 27.2c2.2 5.4 4.1 10.2 4.1 10.7s-4 1-9.6 1c-5.2 0-9.5-.4-9.5-1a86 86 0 0 1 3.6-9.2l4.5-10.8c1.3-3.2 2-2.4 6.9 9.3m37.3-6.1c0 24.3.6 28 5.6 34.5 1.4 1.9 5.4 4.7 9.2 6.6a26 26 0 0 0 15.3 3.2c10.8-.1 17.6-2.7 23.1-9 6-6.8 6.5-9.3 7-34.9l.5-22.7H759v21c0 23.7-.6 26.7-6.2 30.1-6.4 4-16.7 1.8-20.1-4.2-1-1.6-1.4-8.8-1.9-24.4l-.5-22-7.7-.3-7.9-.4zm74.6 10.8v33h14.9c25.2 0 35.2-2.5 43-11.2a28 28 0 0 0 8-21.8c0-9.7-1.8-15-7.5-21.4-8.1-9.2-16.8-11.7-41-11.7h-17.4zm35.7-19c11.6 3.1 17.3 14.7 13.2 26.3-3.2 8.8-8.9 11.7-22.8 11.7h-10v-39.1h7.8c4.2 0 9.6.5 11.8 1.1m41.3-12.8c-.3.7-.4 15.4-.3 32.8l.3 31.6 7.8.3 7.8.3v-66.3h-7.6q-7.7 0-8 1.3"/>
  <path fill="#fd3c84" d="m799 187.7-8.1.5-11.8 26-14.8 32.9-3 6.8H778l2.7-7 2.8-7h31.8l3 7 3.2 7h8c4.6 0 8.2-.4 8.2-.9 0-1.2-29.2-64.7-30-65.3-.4-.3-4.4-.3-8.8 0m5.8 27.4c2.6 6 4.7 11.4 4.7 11.7s-4.4.4-10 .2l-10-.3 4.8-11.4a82 82 0 0 1 5.1-11.6c.3 0 2.6 5.1 5.4 11.4m-164.4 5.7v33.1h15.1v-19.1h10.4c17 0 26-4 30.5-13.3a23 23 0 0 0-4.1-26.4c-6.6-6.5-10.8-7.4-33-7.4h-18.9zm36.8-18.9c6 2.7 7.2 11 2.6 16l-3 3.4H656l-.3-10.4-.3-10.2h9.6c5.2 0 10.8.5 12.2 1.2m31.8 18.6.3 32.9h49.3v-13h-33.2l-.3-26.4-.2-26.3h-16.1zM831.6 188c0 .4 5.6 9.5 12.4 20.4l12.3 20 .5 12.5.5 12.5h16.1l-.3-11-.4-11 11.4-18.6c6.1-10.3 12.2-20.1 13.3-22l1.9-3.1h-8.2c-7.3 0-8.2.2-9.4 2.2l-8.4 13.5a83 83 0 0 1-7.6 11.4c-.3 0-4.4-6.2-8.9-13.6l-8.2-13.5H840c-4.6 0-8.5.2-8.5.4m74.7 32.7v33.1h52.3v-13h-36.2v-15.1h31.2v-12h-31.2v-14.1h35.2v-12h-51.3zm64.4 0V254l7.8-.3 7.8-.3.3-9.3.3-9.3h6.8l6.7.1 6.3 9.5 6.5 9.5h8.4c4.7 0 8.5-.2 8.5-.5s-3.3-5.3-7.2-11.2c-5.6-8-7-10.8-5.9-11.2.8-.3 3.4-2.4 5.7-4.7 12-12.2 5.7-33-11.2-37.5-2.2-.6-12.3-1.1-22.4-1.1h-18.4zm37.2-18.6c4.3 2.1 5.8 7.8 3.7 12.9-2.1 5-6.3 6.7-16.7 6.7h-8.1v-21.1h9q9.3 0 12.1 1.5"/>
  <path fill="#ffa48d" d="M10 42.1v4h118.8v35.2H10v8h118.8v26l-5.2-.2a27 27 0 0 0-18.8 6l-4 3.3H10v8h53.4v35.2H10v8h53.4v26l-4-.6a28 28 0 0 0-18.9 6.2l-4.1 3.5H10v8h11.7q11.5 0 11 1c-1 1.7 1.3 7.6 3.8 10 1.2 1 4.1 2.5 6.4 3.2a27 27 0 0 0 26.7-10.3l2.3-3.7 50.7-.1h50.6l-.3-3.8-.3-3.8-50-.3-50.2-.2v-35.1h19.2v4.6c0 5.4 1.4 5.2 3-.6l1.3-4h77.3l-.3-3.8-.3-3.7-37.7-.1-37.8-.1-1-3a32 32 0 0 0-11.6-17.5c-6.8-6.1-11-11.3-11-13.8 0-.7 3.7-1.1 12-1.1h12.1v2.5c0 7.5 6 12 16.1 12 8.3 0 16-3.9 20.6-10.3l3-4.2h35.9v-8h-35.3V89.2H156v4.5c0 2.5.4 4.5 1 4.5.3 0 1.3-2 2-4.5l1.3-4.5h12.8v-8h-11.9l-.7-3.7c-1-6-2.9-8.7-10.6-15.8-7.8-7.1-12-12.2-12-14.3 0-1 3.8-1.4 17.7-1.4h17.6l-.3-3.8-.3-3.7-81.2-.3L10 38zm133.2 28.2c5.3 2.7 7.6 4.7 9.4 8.2l1.5 2.8h-16.2v-6.5c0-3.7.2-6.6.5-6.6s2.5 1 4.8 2.1m-61.4 88a34 34 0 0 1 6 6l2 3.3H72.3v-13.3l2.8.6c1.6.4 4.5 2 6.6 3.5M275.8 38.8c0 .5 2.5 2.3 5.5 4l5.4 3.3h149.2v35.2l-46 .2-46.1.3 6 3.7 6 3.8h80.1v25.8h-6.3c-7.2 0-15.2 3-19 7-2 2.1-3 2.3-11.6 2.3h-9.4v8h15.1v2.8c0 7.6 8.5 13.1 18.1 12 7-.8 14.8-5.3 18.6-10.5l3-4.2h34.8v35.1h-58c-32.1 0-60.3.3-62.8.6-2.6.4-6.7 1.9-9.6 3.7l-5 3.2 67.8.3 67.6.2v25.6H473c-7.3.1-14 2.6-18 6.8l-2.5 2.7H287.6l-5.3 3.2a25 25 0 0 0-6 4c-.4.5 32 .9 85.4.9h86l.7 3.9c2 12.5 20.9 14.8 33.1 4.1 2.6-2.3 5-5 5.3-6 .6-2 1.9-2 58-2H602v-8H488.3v-35.2h19.1l.1 4.7.1 4.9 2.1-4.9 2.1-4.7H602v-8h-90.6v-2.7c0-4.8-4-11.3-11.2-17.7-6.7-6-11-11.2-11-13.6q-.2-1 12.2-1.1h12v2.6c0 6.2 7.6 12.4 15.3 12.4 8.3 0 17.3-4.5 21.8-11l2.7-4h48.9v-8h-48.4V89.2H573V94l.2 4.8 2-4.8 2-4.7h25v-8H577v-2.7q0-7.4-12.2-18.4c-6.8-6.1-11-11.2-11-13.6 0-.3 11-.5 24.2-.5h24.2v-8H438.9c-89.7 0-163 .3-163 .7m268.9 25v17.5h-76.4l-.7-4q-1.4-8.1-11.7-16.8c-6.4-5.4-9.3-8.8-10.3-12.1l-.7-2.3h99.8zm-93.7 7c4.3 2 10.1 7.8 10.1 9.8 0 .4-3.6.7-8 .7H445v-6.5c0-3.7.2-6.6.5-6.6s2.8 1.1 5.5 2.5m110.9 1c3.6 2.3 8 7 8 8.6 0 .5-3.7.9-8.1.9h-8v-6.7c0-6.3 0-6.5 2.2-5.8 1.3.4 3.9 1.7 5.9 3M463.5 92c.4 1.4.4 3.4.1 4.5-1.2 3.7.6 2 2.6-2.6l2-4.5h76.5v26l-6.4-.1c-7 0-12 1.7-17.8 6.2l-3.8 3H445V89.3h9c8.7 0 9 0 9.5 2.6m33.6 66.2c3.5 2.3 9.1 9 8.2 9.8-.2.2-4.1 0-8.7-.1l-8.3-.4v-6.5c0-6.6 0-6.6 2.6-6 1.4.4 4.2 1.8 6.2 3.2"/>
</svg>