<svg xmlns="http://www.w3.org/2000/svg" xml:space="preserve" viewBox="0 0 64 64">
  <path d="M32 0A32 32 0 0 0 0 32a32 32 0 0 0 32 32 32 32 0 0 0 32-32A32 32 0 0 0 32 0m19.8 51.8a28 28 0 0 1-39.6 0 28 28 0 0 1 0-39.6 28 28 0 0 1 39.6 0 28 28 0 0 1 0 39.6"/>
  <path d="m47.2 30.4-14-11A2 2 0 0 0 30 21v22a2 2 0 0 0 3.2 1.6l14-11a2 2 0 0 0 0-3.2M34 39V25l8.8 6.9zm-6.8-8.6-14-11A2 2 0 0 0 10 21v22a2 2 0 0 0 3.2 1.6l14-11a2 2 0 0 0 0-3.2M14 39V25l8.8 6.9zm36-16v18a2 2 0 0 0 4 0V23a2 2 0 0 0-4 0"/>
</svg>