<svg xmlns="http://www.w3.org/2000/svg" xml:space="preserve" viewBox="0 0 64 64">
  <path d="M32 0A32 32 0 0 0 0 32a32 32 0 0 0 32 32 32 32 0 0 0 32-32A32 32 0 0 0 32 0m19.8 51.8a28 28 0 0 1-39.6 0 28 28 0 0 1 0-39.6 28 28 0 0 1 39.6 0 28 28 0 0 1 0 39.6"/>
  <path d="M28.9 19.2a2 2 0 0 0-2.1.2l-14 11a2 2 0 0 0 0 3.2l14 11A2 2 0 0 0 30 43V21a2 2 0 0 0-1.1-1.8M26 38.9 17.2 32l8.8-6.9zm22.9-19.7a2 2 0 0 0-2.1.2l-14 11a2 2 0 0 0 0 3.2l14 11A2 2 0 0 0 50 43V21a2 2 0 0 0-1.1-1.8M46 38.9 37.2 32l8.8-6.9z"/>
</svg>